# xmcd CD database file
#
# Track frame offsets:
#	150
#	24489
#	48020
#
# Disc length: 905 seconds
#
# Revision: 0
# Processed by: cddbd v1.5.1PL0 Copyright (c) Steve Scherf et al.
# Submitted via: CDex 1.51
#
DISCID=17038703
DTITLE=ワライナキ - たったひとつのこの世界で
DYEAR=2005
DGENRE=JPop
TTITLE0=たったひとつのこの世界で
TTITLE1=夏になれば
TTITLE2=ありがとう
EXTD=YEAR: 2005
EXTT0=
EXTT1=
EXTT2=
PLAYORDER=
